<mxfile host="app.diagrams.net" agent="Mozilla/5.0 (Windows NT 10.0; Win64; x64) AppleWebKit/537.36 (KHTML, like Gecko) Chrome/128.0.0.0 Safari/537.36" version="24.7.7">
  <diagram name="PÃ¡gina-1" id="MBtQlfDdru0ZuhZ4u6gV">
    <mxGraphModel dx="1434" dy="780" grid="1" gridSize="10" guides="1" tooltips="1" connect="1" arrows="1" fold="1" page="1" pageScale="1" pageWidth="827" pageHeight="1169" math="0" shadow="0">
      <root>
        <mxCell id="0" />
        <mxCell id="1" parent="0" />
        <mxCell id="37JujHT57ylzOlUbyL_T-1" value="" style="edgeStyle=orthogonalEdgeStyle;rounded=0;orthogonalLoop=1;jettySize=auto;html=1;" edge="1" parent="1" source="37JujHT57ylzOlUbyL_T-2" target="37JujHT57ylzOlUbyL_T-4">
          <mxGeometry relative="1" as="geometry" />
        </mxCell>
        <mxCell id="37JujHT57ylzOlUbyL_T-2" value="inicio" style="ellipse;whiteSpace=wrap;html=1;" vertex="1" parent="1">
          <mxGeometry x="340" y="90" width="120" height="80" as="geometry" />
        </mxCell>
        <mxCell id="37JujHT57ylzOlUbyL_T-3" value="" style="edgeStyle=orthogonalEdgeStyle;rounded=0;orthogonalLoop=1;jettySize=auto;html=1;" edge="1" parent="1" source="37JujHT57ylzOlUbyL_T-4" target="37JujHT57ylzOlUbyL_T-6">
          <mxGeometry relative="1" as="geometry" />
        </mxCell>
        <mxCell id="37JujHT57ylzOlUbyL_T-4" value="imprima(&quot;digite n1&quot;);&lt;div&gt;leia(n1);&lt;/div&gt;" style="shape=parallelogram;perimeter=parallelogramPerimeter;whiteSpace=wrap;html=1;fixedSize=1;" vertex="1" parent="1">
          <mxGeometry x="320" y="210" width="160" height="60" as="geometry" />
        </mxCell>
        <mxCell id="37JujHT57ylzOlUbyL_T-5" value="" style="edgeStyle=orthogonalEdgeStyle;rounded=0;orthogonalLoop=1;jettySize=auto;html=1;" edge="1" parent="1" source="37JujHT57ylzOlUbyL_T-6" target="37JujHT57ylzOlUbyL_T-8">
          <mxGeometry relative="1" as="geometry" />
        </mxCell>
        <mxCell id="37JujHT57ylzOlUbyL_T-6" value="imprima(&quot;digite n2&quot;);&lt;div&gt;leia(n2);&lt;/div&gt;" style="shape=parallelogram;perimeter=parallelogramPerimeter;whiteSpace=wrap;html=1;fixedSize=1;" vertex="1" parent="1">
          <mxGeometry x="320" y="310" width="160" height="60" as="geometry" />
        </mxCell>
        <mxCell id="37JujHT57ylzOlUbyL_T-13" value="" style="edgeStyle=orthogonalEdgeStyle;rounded=0;orthogonalLoop=1;jettySize=auto;html=1;" edge="1" parent="1" source="37JujHT57ylzOlUbyL_T-8" target="37JujHT57ylzOlUbyL_T-12">
          <mxGeometry relative="1" as="geometry" />
        </mxCell>
        <mxCell id="37JujHT57ylzOlUbyL_T-8" value="calcula total&lt;div&gt;&lt;br&gt;&lt;/div&gt;&lt;div&gt;nTotal = n1 * 3&lt;/div&gt;" style="whiteSpace=wrap;html=1;" vertex="1" parent="1">
          <mxGeometry x="340" y="410" width="120" height="60" as="geometry" />
        </mxCell>
        <mxCell id="37JujHT57ylzOlUbyL_T-9" value="" style="edgeStyle=orthogonalEdgeStyle;rounded=0;orthogonalLoop=1;jettySize=auto;html=1;" edge="1" parent="1" source="37JujHT57ylzOlUbyL_T-10" target="37JujHT57ylzOlUbyL_T-11">
          <mxGeometry relative="1" as="geometry" />
        </mxCell>
        <mxCell id="37JujHT57ylzOlUbyL_T-10" value="imprima(&quot;total: &quot;, nTotal)" style="shape=parallelogram;perimeter=parallelogramPerimeter;whiteSpace=wrap;html=1;fixedSize=1;" vertex="1" parent="1">
          <mxGeometry x="340" y="600" width="120" height="60" as="geometry" />
        </mxCell>
        <mxCell id="37JujHT57ylzOlUbyL_T-11" value="fim" style="ellipse;whiteSpace=wrap;html=1;" vertex="1" parent="1">
          <mxGeometry x="360" y="710" width="80" height="80" as="geometry" />
        </mxCell>
        <mxCell id="37JujHT57ylzOlUbyL_T-14" style="edgeStyle=orthogonalEdgeStyle;rounded=0;orthogonalLoop=1;jettySize=auto;html=1;entryX=0.5;entryY=0;entryDx=0;entryDy=0;" edge="1" parent="1" source="37JujHT57ylzOlUbyL_T-12" target="37JujHT57ylzOlUbyL_T-10">
          <mxGeometry relative="1" as="geometry" />
        </mxCell>
        <mxCell id="37JujHT57ylzOlUbyL_T-12" value="calcula total parte 2&lt;div&gt;&lt;br&gt;&lt;/div&gt;&lt;div&gt;nTotal = nTotal + n2&lt;/div&gt;" style="whiteSpace=wrap;html=1;" vertex="1" parent="1">
          <mxGeometry x="340" y="500" width="120" height="60" as="geometry" />
        </mxCell>
      </root>
    </mxGraphModel>
  </diagram>
</mxfile>
